<?xml version="1.0" encoding="utf-8"?>
<!-- Generator: Adobe Illustrator 21.1.0, SVG Export Plug-In . SVG Version: 6.00 Build 0)  -->
<svg version="1.1" id="Layer_1" xmlns="http://www.w3.org/2000/svg" xmlns:xlink="http://www.w3.org/1999/xlink" x="0px" y="0px"
	 viewBox="0 0 960 231.1" style="enable-background:new 0 0 960 231.1;" xml:space="preserve">
<style type="text/css">
	.st0{fill:#7ABEAC;}
	.st1{opacity:0.4;}
	.st2{fill:none;}
	.st3{fill:#FFFFFF;}
	.st4{opacity:0.8;fill:#FFFFFF;}
</style>
<title>Asset 3</title>
<g id="Layer_2">
	<g id="Layer_1-2">
		<rect class="st0" width="960" height="231.1"/>
		<g class="st1">
			<path class="st2" d="M426.8,196c1.8,5.3,6.2,17.7,12.7,35.1h0.9C434.1,215.4,429,201.8,426.8,196L426.8,196z"/>
			<path class="st2" d="M414,231.1h2.7c-2.3-10.2-4-20.6-5.2-31C412.1,207.8,412.9,218.6,414,231.1z"/>
			<path class="st2" d="M418.3,191.9c1,3.8,5.5,20.1,11.1,39.2h3.2c-10.2-25.5-11.4-34.9-11.4-37.8L418.3,191.9z"/>
			<path class="st2" d="M457,212.6l-0.4,0.1l-0.5-0.5l-0.3-0.2c1.6,4.2,4,10.5,7.2,19.2h0.9c-2.4-7.7-3.9-13.5-4.8-17.3L457,212.6z"
				/>
			<path class="st2" d="M432.9,199.1c2.2,5,6.6,15.2,13.9,32h1c-6.6-17.5-10.1-26.6-11.5-30.2L432.9,199.1z"/>
			<path class="st2" d="M441.2,203.5c2,4.1,7.3,14.8,13.4,27.6h2.7c-3.2-9.5-5.8-17.7-7.5-22.8C447,206.7,444.1,205.1,441.2,203.5z"
				/>
			<path class="st2" d="M405.7,198.9c-0.4,8.2-0.6,19.4-0.2,32.2h1.5C405.9,220.4,405.5,209.7,405.7,198.9z"/>
			<path class="st2" d="M206.8,180.5l-0.7,1.8l7.1-4.7C209,179.9,207.4,180.4,206.8,180.5z"/>
			<path class="st2" d="M470.7,221.1c1.2,2.6,2.8,6,4.8,10h1.9c-1.6-3.1-3-5.9-4.1-8.3L470.7,221.1z"/>
			<path class="st2" d="M200,191c0.5-3.8,1.1-7.6,2-11.4c-3.4,9.1-6.2,17.7-8.4,24.6c2.5-4.7,4.8-9.1,6.8-13.2L200,191z"/>
			<path class="st2" d="M387.2,231.1h2.4c-0.4-7.4-0.6-13.7-0.7-19.1C388.5,217.9,388,224.2,387.2,231.1z"/>
			<path class="st2" d="M399.9,231.1L399.9,231.1c0.1-0.4,0.1-0.8,0-1.1C400,230.3,399.9,230.7,399.9,231.1z"/>
			<path class="st2" d="M401,164.6c-4.2,3.8-7.7,6.6-10.1,8.6l2.5,1C395.5,170.7,398.1,167.4,401,164.6z"/>
			<path class="st2" d="M483.1,231.1h2.2l-3.6-2.6L483.1,231.1z"/>
			<path class="st2" d="M169,231.1h4.2c2.5-8.9,5.6-17.5,9.3-25.9C177.6,213.9,173.1,222.7,169,231.1z"/>
			<path class="st2" d="M389.4,196.1c0.8-9.4,2.4-13.2,3.5-15l-3.9-1.5C389.2,182.2,389.5,188,389.4,196.1z"/>
			<path class="st2" d="M403.1,178c3.6-3.9,9.6-10,17.6-17.2c-9.1,7.3-16.6,12.5-21.4,15.6L403.1,178z"/>
			<path class="st2" d="M494,200c-18.3,2.3-30.4,3.8-37.6,4.8l3.1,1.8C466,205,477.4,202.5,494,200z"/>
			<path class="st2" d="M495.2,230.4c3.4,0.1,8.2,0.4,13.9,0.6h25.7c-17.8-1.8-35.7-3.8-45.4-4.9C491.3,227.6,493.2,229,495.2,230.4
				z"/>
			<path class="st2" d="M399.6,213.3c0-9.6,0.6-19.2,1.7-28.8c-1.6-0.7-3.2-1.3-4.8-1.9C398.2,192.7,399.2,203,399.6,213.3z"/>
			<path class="st3" d="M525.2,96.3l0.2-0.1L525.2,96.3z"/>
			<path class="st3" d="M388.9,212c0,5.4,0.2,11.7,0.7,19.1h10.4c0-0.4,0-0.8,0-1.1c0,0.4,0,0.8,0.1,1.1h5.5
				c-0.4-12.8-0.2-24,0.2-32.2c-0.2,10.8,0.2,21.5,1.3,32.2h7c-1.2-12.5-1.9-23.3-2.4-31c1.1,10.4,2.9,20.8,5.2,31h12.7
				c-5.6-19.1-10.1-35.4-11.1-39.2l2.9,1.4c0,3,1.2,12.4,11.4,37.8h7c-6.6-17.4-10.9-29.8-12.8-35.1h0.1c2.1,5.7,7.2,19.3,13.5,35
				h6.3c-7.4-16.9-11.8-27-13.9-32l3.5,1.8c1.4,3.6,4.8,12.7,11.5,30.2h6.8c-6.1-12.8-11.4-23.5-13.4-27.6c2.9,1.6,5.8,3.2,8.6,4.8
				c1.6,5.1,4.2,13.2,7.5,22.8h5.8c-3.3-8.7-5.6-15-7.2-19.2l0.3,0.2l0.5,0.5l0.4-0.1l2.1,1.3c0.9,3.8,2.5,9.6,4.8,17.3h11.5
				c-1.9-4-3.5-7.3-4.8-10l2.5,1.7c1.1,2.3,2.5,5.1,4.1,8.3h5.7l-1.4-2.6l3.6,2.6h23.8c-5.7-0.3-10.5-0.5-13.9-0.6
				c-1.9-1.4-3.9-2.9-5.8-4.2c9.8,1.1,27.6,3.1,45.4,4.9h72.8c-20.4-4-43.6-7.4-63.9-7.9c-34.1-0.7-52.2-1.1-60.4-1.3l-3-2
				c9.8,0.2,26.2,0.6,51.4,1.3c46.4,1.2,107.6,6.3,107.6,6.3s-51.8-9.8-88.4-11.8c-27.3-1.5-61.9-0.9-77.7-0.4l-2.3-1.5
				c25.2-1.1,107.9-3.9,177.2,5.7c0,0-63.1-15-127.1-15.3c11.9-1.4,23.8-2.5,34-3.3c37.9-2.7,72.9-5.1,72.9-5.1
				c-31.8-3-63.9-3.1-95.7-0.2c41.5-4.4,85.6-7.4,85.6-7.4s-52.7-1.9-89.1,1.5c-28.2,2.7-63.9,8.9-78.6,11.5l-1-0.6
				c18.1-2.7,59.6-9,81.6-13.6c28.7-6.1,88.9-13.4,88.9-13.4s-70.9-1.7-120.1,10.4l0,0c9.6-2.4,18.8-4.8,26.1-6.9
				c29.8-8.3,77.7-16,77.7-16s-73.4,7.2-125.4,19.5l10.3-3.3c44.2-14.1,103.7-29.4,103.7-29.4s-52.2,7.8-87.3,17.9
				c-26.4,7.6-59,19.7-73.7,25.2l-0.2-0.1c12-4.8,37.5-14.9,71.3-27c47.7-17.1,76.5-27.3,76.5-27.3s-54.3,15.3-104.6,31.4
				c-30,9.6-43.7,16.1-49.8,19.7l-2-0.9c14.3-7,52.2-25.1,79.1-36c33.8-13.7,65-26.3,65-26.3c-30.4,6.8-60.1,16.4-88.8,28.7
				c-2.9,1.2-5.6,2.5-8.3,3.7l5.6-3c32.1-16.7,79.1-36.7,79.1-36.7s-83.9,25.3-135,61.6c20.9-16.2,69.4-52.3,116.2-76.9
				c0,0-75.4,31-121,73.2c12.9-12.4,36.8-33.7,65-51c38.2-23.5,45.2-27,46.2-27.5c-2.7,1.2-42.8,19.2-74,40.6
				c-6.4,4.4-12.4,8.9-17.7,13.2c2.4-2.2,4.9-4.5,7.4-6.9c25-23.9,66.9-57.9,66.9-57.9s-18,9.7-68.2,47
				c-11.6,8.6-20.3,15.6-26.9,21.3c5.2-5.2,11-11.2,16.9-18.1c22.7-26.1,61-57.3,61-57.3s-16.8,8.5-65.4,51
				c-29.1,25.5-37.5,36.6-39.9,41.8c-26.4-9.7-43.5-13-43.5-13l-8.6,5c17.5,3.9,34.8,8.9,51.7,15c-2.2,3.2-5.8,13.5-6,53h8.3
				C388,224.2,388.5,217.9,388.9,212z M494,200c-16.6,2.5-28,5-34.5,6.6l-3.1-1.8C463.7,203.9,475.8,202.3,494,200z M399.6,213.2
				c-0.4-10.3-1.4-20.6-3.1-30.8c1.6,0.7,3.2,1.3,4.8,1.9C400.2,194,399.7,203.6,399.6,213.2L399.6,213.2z M420.7,160.8
				c-8,7.2-14,13.3-17.6,17.2l-3.8-1.6C404.1,173.4,411.6,168.1,420.7,160.8L420.7,160.8z M401,164.6c-2.9,2.9-5.5,6.1-7.6,9.6
				l-2.5-1C393.4,171.2,396.8,168.3,401,164.6z M392.9,181c-1.1,1.8-2.6,5.6-3.5,15c0-8.1-0.2-13.8-0.4-16.5L392.9,181z"/>
			<path class="st3" d="M159.8,181c0,0-13.9,24-26.9,50.1h5.2C149.7,203.5,159.8,181,159.8,181z"/>
			<path class="st3" d="M298.7,229.7l-2.8,1.4h0.5C297.9,230.2,298.7,229.7,298.7,229.7z"/>
			<path class="st3" d="M115,190.2c0.9-2.8,1.5-4.3,1.5-4.3s-10,19.4-20.7,45.2h8.4C109.2,211.4,113.5,195.6,115,190.2z"/>
			<path class="st3" d="M155.1,170c-12.3,19.8-23.6,40.2-33.7,61.1h6.1C135.8,210.6,145.1,189.4,155.1,170z"/>
			<path class="st3" d="M126.1,181.2c-7.5,16.3-14.2,32.9-19.9,49.9h6.2C120,203.3,126.1,181.2,126.1,181.2z"/>
			<path class="st3" d="M86.6,208.4c0,0-2.7,8.8-6.8,22.6h1.5C84.7,216.5,86.6,208.4,86.6,208.4z"/>
			<path class="st3" d="M103.4,203.3c0,0-5.3,11.7-11.9,27.8h2.9C99.6,214.6,103.4,203.3,103.4,203.3z"/>
			<path class="st3" d="M183.2,164.7c-15,21.3-28.7,43.5-41.2,66.4h8.6C163.6,202.8,183.2,164.7,183.2,164.7z"/>
			<path class="st3" d="M298.6,211.3c0,0-22.7,10.8-45,19.8h7.1C282.5,220.2,298.6,211.3,298.6,211.3z"/>
			<path class="st3" d="M301.8,199.7c0,0-37.6,18.2-62.2,27.5c-3.1,1.1-6.5,2.5-10.2,3.9h11C272.5,215.6,301.8,199.7,301.8,199.7z"
				/>
			<path class="st3" d="M291.2,228c0,0-2.8,1.2-7.4,3.1h1.1C289,229.1,291.2,228,291.2,228z"/>
			<path class="st3" d="M303.4,191c0,0-36,16.8-60.1,24.8c-11.5,3.8-28.2,9.9-42.6,15.3h19.8C259.3,215.1,303.4,191,303.4,191z"/>
			<path class="st3" d="M214.2,225.1c37.3-15,87-41.6,87-41.6s-33.2,15.8-55.1,23.7c-18,6.5-50.7,19.6-61.6,23.9H199
				C203.3,229.5,208.3,227.5,214.2,225.1z"/>
			<path class="st3" d="M193.2,167.6c0,0-22.6,33.3-39.2,63.5h6.4C176.9,198.1,193.2,167.6,193.2,167.6z"/>
			<path class="st3" d="M184.1,229.1c1.9-0.3,8.9-2.4,35-14.4c35.2-16.1,81.8-43.8,81.8-43.8s-31.3,16.6-51.9,25.2
				s-61.4,27.4-61.4,27.4l-1.7,2.2c0.8-1.5,1.6-3,2.4-4.5h0.3V221c2.6-0.6,10.4-3.2,34.5-14.3c35.2-16.1,81.9-43.9,81.9-43.9
				s-31.3,16.6-51.9,25.2s-61.4,27.4-61.4,27.4l-1.4,1.8c0.9-1.7,1.7-3.4,2.6-5.2c3.9-1.2,12.6-4.6,32.7-13.8
				c35.2-16.1,81.8-43.8,81.8-43.8s-31.3,16.6-51.9,25.2c-18.2,7.6-52.2,23.1-59.9,26.6l0.6-1.2c4.1-1.5,12.8-5.4,31.4-15
				c34.4-17.7,79.8-47.5,79.8-47.5s-30.5,18-50.7,27.5c-17.2,8.1-48.9,24.3-57.8,28.9l0.7-1.5c2-0.5,8.9-3.1,32.2-16.6
				c32-18.5,72.2-49.8,72.2-49.8s-27.7,18.9-46.6,28.8c-17,8.9-48.5,27.1-54.9,30.8l0.8-1.9c0.7,0,4.8-0.8,27.6-15.8
				c26.3-17.4,57.9-46.3,57.9-46.3s-22.2,17.6-38,27c-2.3,1.4-4.9,2.9-7.6,4.6c24-17.3,48.8-40,48.8-40s-22.2,17.6-38,27
				c-4.5,2.7-10,6.2-15.6,9.8c20.9-17.1,43.1-40.8,43.1-40.8s-18.5,17-32,26.4c-3,2.1-6.6,4.7-10.4,7.5
				c19.1-18.8,38.6-43.6,38.6-43.6s-17,18.6-29.5,29.1c-1.5,1.3-3.2,2.8-5.1,4.3c16.3-18.5,32.2-41.6,32.2-41.6s-14.9,18.5-26,29.1
				c-4.2,4-9.9,9.8-15.4,15.3c14.6-21.4,29-50.5,29-50.5s-12,20.4-21.6,32.5c-6.6,8.4-17.3,23.1-23.1,31.3c5-15.6,12.9-38,22.3-57
				c0,0-23.3,37.3-29.4,70.3c-1.5,3.7-3.6,8.6-6.3,14.3c4.4-14.5,13.7-43.5,25.4-67.1c-8.8,14.6-16.3,30-22.4,45.9
				c-7.4,14.1-17.2,35.6-20.7,55.4c-2.8,4.9-5.8,9.9-9,15.1h4.7L184.1,229.1z M206.8,180.5c0.6-0.1,2.2-0.6,6.4-2.9l-7.2,4.7
				L206.8,180.5z M202.1,179.6c-0.9,3.8-1.5,7.6-2,11.4h0.5c-2,4.1-4.3,8.5-6.8,13.2C195.9,197.3,198.7,188.7,202.1,179.6z"/>
			<path class="st3" d="M182.5,205.2c-3.7,8.4-6.8,17.1-9.3,25.9h3.7c3.5-11.3,8.8-27,15.3-42.6c0.7-1,1.3-2.1,1.9-3.1
				c0.9-1.5-0.5,0.6-1.4,1.9c2.4-5.6,4.9-11.1,7.5-16.4c0,0-6.2,10-13.1,24.2c-8.2,11.6-15.7,23.7-22.6,36.1h4.5
				C173.1,222.7,177.6,213.9,182.5,205.2z"/>
			<path class="st3" d="M829.4,158.9c-27.9-32.7-39.5-36.4-39.5-36.4s30,22.1,42.5,49.9c7.4,16.4,18,39,28.2,58.7h7.5
				C858.8,207.5,844.8,177,829.4,158.9z"/>
			<path class="st3" d="M758.6,144.9c0,0,23.5,12,43.2,41.6c12.9,19.4,21.9,33.3,30.2,44.6h4.8C823.3,206.7,794.4,161.4,758.6,144.9
				z"/>
			<path class="st3" d="M796.4,193.6c-25.9-25.9-40.2-35.4-40.2-35.4s40.5,48.6,65.2,72.8h6.2C818.3,217.7,807.9,205.2,796.4,193.6z
				"/>
			<path class="st3" d="M734.8,170.5c0,0,55.1,41.1,79.3,60.6h2.5C803.8,216.5,771.2,182.4,734.8,170.5z"/>
			<path class="st3" d="M758.6,193.6c-25.5-11.2-41.2-9.1-41.2-9.1s24.7-0.2,42.8,13.1c14.9,10.9,35.5,25.1,47.5,33.4h1.8
				C800.2,222.2,778.1,202.2,758.6,193.6z"/>
			<path class="st3" d="M742.2,196c-24.5-7.1-35-4.6-35-4.6s28.9-0.9,48.3,14.1c12.8,9.8,26.5,18.4,41,25.5h3.8
				C790.5,223.3,762.2,201.8,742.2,196z"/>
			<path class="st3" d="M772.8,225.3c6.2,2.7,11.9,4.7,15.4,5.1c0,0-28.6-19.5-50.4-25.9c-17-5-28.9-4.2-33.7-3.9
				c7.6,0.3,31.3,2.6,40.8,9.4C753.8,215.9,763.1,221,772.8,225.3z"/>
			<path class="st3" d="M704.1,200.6c-1.7-0.1-2.5-0.1-2.4,0C702.5,200.7,703.3,200.7,704.1,200.6z"/>
			<path class="st3" d="M730.7,212.5c-23.8-4.5-32.3-2.5-32.3-2.5s52.8,8.2,72.8,18.7C758.8,220.8,745.1,215.2,730.7,212.5z"/>
			<path class="st3" d="M765.7,228.7c0,0-18.7-7.8-34.7-9s-32.7,2.9-32.7,2.9s27.9,5.1,52.4,4.4c-7.6,0.8-15.2,2.1-22.6,4.1h31
				C761.6,230.3,763.8,229.5,765.7,228.7z"/>
			<path class="st3" d="M797.4,160.6c-22.1-20.4-30.3-21.4-30.3-21.4s30.3,20.3,44.4,45.4c8.6,15.2,18.8,32.5,28.2,46.5h4.8
				C831.9,208.2,811.5,173.7,797.4,160.6z"/>
			<path class="st3" d="M774,231.1h0.2l0,0H774z"/>
			<path class="st3" d="M814.7,165.4c-28.6-25.2-54.5-33-54.5-33s41.2,19.1,53.8,38.5c7.8,12,21.2,38.9,33.6,60.2h8.6
				C846.3,209,831.2,179.9,814.7,165.4z"/>
			<path class="st3" d="M774,231.1c-4.4-0.5-6.8-0.7-6.8-0.7C769.4,230.6,771.7,230.8,774,231.1z"/>
			<path class="st3" d="M914.9,125.4l-0.1,0.2C914.8,125.6,914.8,125.6,914.9,125.4z"/>
			<path class="st3" d="M956.2,231.1h3.8v-10.3C958.7,224.3,957.5,227.8,956.2,231.1z"/>
			<path class="st3" d="M923.3,108.4l-0.3-0.9l0.3,1c2,7.4,13.6,54,8.6,83.4c-1.8,10.8-4.1,24.8-6.1,39.1H939
				c0.8-7.6,1.4-15.6,1.7-23.8C941.9,159,925.9,115.1,923.3,108.4z"/>
			<path class="st3" d="M883.8,107.5c0,0,16.3,43.9,16.7,72.5c0.2,13,0.9,32.2,2.5,51.1h10.7c-0.5-18.6-2.2-39.1-6.3-56.9
				C896.4,127.6,883.8,107.5,883.8,107.5z"/>
			<path class="st3" d="M836.8,107.5c0,0,22.8,33.7,33,74.2c4.2,16.7,9.1,34,13.6,49.4h9.6c-3.6-17.5-8.6-34.7-14.8-51.4
				C857.3,122.5,836.8,107.5,836.8,107.5z"/>
			<path class="st3" d="M810,112c0,0,33,28.9,39.3,52c5.3,19.5,13.7,45.4,21.9,67.1h8.8c-5.2-19.6-12.7-43-23-62.6
				C834.8,126.3,810,112,810,112z"/>
			<path class="st2" d="M914.9,125.4l-0.1,0.2C914.8,125.6,914.8,125.6,914.9,125.4z"/>
			<path class="st3" d="M5.8,108.3c8.5,15.6,20.2,29.2,34.2,40.2c22.8,17.4,64.7,59.9,64.7,59.9S75.8,172,45.1,140
				S5.8,108.3,5.8,108.3z"/>
			<path class="st3" d="M71,56.7c0,0,1.7,6,20.8,17.2s64,52.8,64,52.8C129.5,77.3,71,56.7,71,56.7z"/>
			<path class="st3" d="M81.9,50.5c7.8,5.1,79.3,61.9,79.3,61.9C129.6,59.3,81.9,50.5,81.9,50.5z"/>
			<path class="st3" d="M123.1,36.5c13.6,4,67.4,36.3,67.4,36.3C162.2,38.5,122,36.2,123.1,36.5z"/>
			<path class="st3" d="M13.1,150.2c15.6,22.8,49,55.5,49,55.5s-8.8-22.1-34-53.4C15,136,5.8,127.1,0,122.2v8
				C3.2,135.4,7.5,142,13.1,150.2z"/>
			<path class="st3" d="M148.4,30.9c0,0,0.7,0,2,0C149.8,30.8,149.1,30.8,148.4,30.9z"/>
			<path class="st3" d="M205.4,54.7c-23.1-21.2-47.9-23.6-55-23.8C164.3,32.1,205.4,54.7,205.4,54.7z"/>
			<path class="st3" d="M153,29.7c2.3-0.2,4.5-0.5,6.8-0.7C159.8,29,157.3,29.2,153,29.7z"/>
			<path class="st3" d="M53.6,231.1h1.3c1.2-7.7,2.1-12.5,2.1-12.5S55.6,223.2,53.6,231.1z"/>
			<path class="st3" d="M33,231.1h0.4c0.1-1.7,0.3-3.3,0.4-5C34.1,223.6,33.6,227.9,33,231.1z"/>
			<path class="st3" d="M63.1,231.1h3l3.6-19C69.7,212.1,66.9,219.2,63.1,231.1z"/>
			<path class="st2" d="M123.1,36.5c13.6,4,67.4,36.3,67.4,36.3C162.2,38.5,122,36.2,123.1,36.5z"/>
			<path class="st2" d="M148.4,30.9c0,0,0.7,0,2,0C149.8,30.8,149.1,30.8,148.4,30.9z"/>
			<path class="st2" d="M205.4,54.7c-23.1-21.2-47.9-23.6-55-23.8C164.3,32.1,205.4,54.7,205.4,54.7z"/>
			<path class="st2" d="M81.9,50.5c7.8,5.1,79.3,61.9,79.3,61.9C129.6,59.3,81.9,50.5,81.9,50.5z"/>
			<path class="st2" d="M71,56.7c0,0,1.7,6,20.8,17.2s64,52.8,64,52.8C129.5,77.3,71,56.7,71,56.7z"/>
			<path class="st2" d="M5.8,108.3c8.5,15.6,20.2,29.2,34.2,40.2c22.8,17.4,64.7,59.9,64.7,59.9S75.8,172,45.1,140
				S5.8,108.3,5.8,108.3z"/>
			<path class="st2" d="M153,29.7c2.3-0.2,4.5-0.5,6.8-0.7C159.8,29,157.3,29.2,153,29.7z"/>
			<path class="st2" d="M914.9,125.4l-0.1,0.2C914.8,125.6,914.8,125.6,914.9,125.4z"/>
			<path class="st0" d="M608.1,4.8l-0.2-0.1l0.2,0.2L608.1,4.8z"/>
			<path class="st3" d="M475.1,15.4l0.4,0.2L475.1,15.4z"/>
			<path class="st3" d="M450.9,0h-2.6c12.4,7.1,24.5,14.1,26.8,15.4C473.1,14.2,463.7,8,450.9,0z"/>
			<path class="st3" d="M426.4,92.7c1.5,0.6-42.4-79.6-42.4-79.6c16.3,24,49.4,76.8,50.3,76.7c0.5-0.1-29.1-48.7-54.2-89.7h-5.5
				C393.4,34.4,425.2,92.3,426.4,92.7z"/>
			<path class="st3" d="M435.9,88.5c0.5-0.7-31.9-54-46-79.3c0,0,52,75.2,52.2,73.6c0.1-1.2-33.5-50.2-56-82.8h-5.9
				C405.5,40.8,435.6,88.9,435.9,88.5z"/>
			<path class="st3" d="M451.7,72.7c-0.2-1-40.3-51-57.2-71c0,0,58.4,68,58.6,67.2c0.2-0.7-25.9-35.1-55.1-68.9h-9.5
				c12.7,16,28.5,35.8,37.1,45.8C441.2,64.3,451.9,73.7,451.7,72.7z"/>
			<path class="st3" d="M461.8,57.5c-0.5-2.2-31.2-33.7-51.1-52.2c0,0,52.6,47.3,51.3,45.3c-0.8-1.3-27.7-27.4-52.4-50.6h-9.5
				c14.2,14.2,31.7,31.3,42.1,40.3C461.8,57.5,462.4,59.8,461.8,57.5z"/>
			<path class="st3" d="M471.8,37.6c-1.1-1.4-29.2-22.5-49.7-37.6h-6.8c6.6,5.1,13.2,10,18.9,14.2C456.4,30.5,473.2,39.5,471.8,37.6
				z"/>
			<path class="st3" d="M478.3,20.3c-0.5-0.2-15.3-9.9-31.9-20.3h-9.2c1.3,0.8,2.5,1.6,3.5,2.3C457.6,13.7,479.1,20.7,478.3,20.3z"
				/>
			<path class="st3" d="M358,17.6c3.1,19.2,13.6,79.2,14.7,81.4s0.5-17-4-44c-2.8-16.6-7.4-39.7-10.4-55h-6.7
				c6.1,35.8,17.6,97.3,17.6,97.3L358,17.6z"/>
			<path class="st3" d="M409.1,96.3c0.9,0.2-33.7-82.5-33.7-82.5c10.3,24.1,37,82.4,37.8,83s-2.8-13.1-12.3-35.5
				C395,47.5,382,19.4,373,0h-7.2C384.1,46.7,408.3,96.1,409.1,96.3z"/>
			<path class="st3" d="M371.3,30c7.6,26,22,67.6,23.7,69.1s0,0-6.6-25.3c-4.7-18-16.7-54.4-23.2-73.8h-6
				c10,35.5,28.4,94.4,29.4,96.2C390,98.2,371.3,30,371.3,30z"/>
			<path class="st3" d="M332.4,86.7c0.1,2.2,5.6-54.7,8.7-86.7h-4.8C332.6,37.8,332.3,84,332.4,86.7z"/>
			<path class="st3" d="M347.9,28.1c1.7,26.5,6.5,68.1,6.5,69s3.4-21.5,0.8-41.6c-1.6-12.5-3.8-38-5.2-55.4h-6.4
				c1.7,37.5,7.3,86.8,7.8,92C351,86.3,347.9,28.1,347.9,28.1z"/>
			<path class="st3" d="M309.4,47c4.3-10.4,11.3-30.2,17.1-47h-5.7c-11.9,33.1-22.4,69.3-22.6,71.1C298.1,73.5,301.1,67.4,309.4,47z
				"/>
			<path class="st3" d="M318,82.6c0.6,1.9,5-11,9.6-36.1c2.8-15.5,6-34.3,8-46.5h-5C324,36.6,317.6,81.1,318,82.6z"/>
			<path class="st3" d="M312.9,0h-6.6c-16.6,27.4-32,54.7-32.3,55.4C273.6,56.3,303.3,13.7,312.9,0z"/>
			<path class="st3" d="M427.4,0h-4.3l48.7,33.6C471.9,33.6,450.4,17.3,427.4,0z"/>
			<path class="st3" d="M254,32.7c-0.8,1,13.3-5.9,36.1-28.8c1.3-1.3,2.6-2.7,3.9-4h-5.6C273,15.4,254.6,32,254,32.7z"/>
			<path class="st3" d="M282,61.1c0.4,0.9,19.3-33.5,34.2-61.1h-2.6C305.9,14.2,281.4,59.8,282,61.1z"/>
			<path class="st3" d="M351.4,92.4c0-0.1,0-0.2,0-0.4C351.4,92.4,351.4,92.5,351.4,92.4z"/>
			<path class="st3" d="M616.3,16.3c0,0-4.7,23.4-12.1,47.5S588,95.2,588,95.2s12.8-6.7,25-32.6S616.6,17.7,616.3,16.3z"/>
			<path class="st3" d="M561.7,44.5c0.1-0.3,0.2-0.6,0.2-0.8C561.7,44.3,561.7,44.5,561.7,44.5z"/>
			<path class="st3" d="M551.1,25.2l0.1-0.1C551.1,25.2,551.1,25.3,551.1,25.2z"/>
			<path class="st3" d="M523.4,0.8c-0.8,1-1.2,1.6-1.2,1.6S522.7,1.9,523.4,0.8z"/>
			<path class="st3" d="M561.9,43.6c0.9-2.9,4.5-13.3,12.3-36.5c0.8-2.3,1.5-4.7,2-7.1h-6.5c-0.1,1.4-0.3,2.7-0.5,4
				C567.2,18.2,563,39.2,561.9,43.6z"/>
			<path class="st3" d="M545.6,0h-2.1c-1.3,3.6-2.8,7.2-4.5,10.6C541.4,7.3,543.6,3.7,545.6,0z"/>
			<path class="st3" d="M579.6,74.8c0,0,2-1.3,16.5-27.6c10.2-18.3,6.6-37.4,3.6-47.2h-3.5c-1.5,11.3-4.5,33.7-5.5,45.7
				C589.2,62.1,579.6,74.8,579.6,74.8z"/>
			<path class="st3" d="M562.4,0h-4.7c-1,8.6-3.2,17.1-6.5,25.1C555.9,17.2,559.7,8.8,562.4,0z"/>
			<path class="st3" d="M598.8,50.5c-1.4,12.1-4.2,24.1-8.2,35.6l12.1-25.6c9.7-20.6,7.3-44.3,6-52.7l6.3,6.8h0h0.1
				c4.4,4.7,8.7,9.4,13,14.1c-4.8,8.3-6.6,19.5-9.2,35.3c-2.6,16.6-16,38.6-16,38.6l13.9-21.4c11.6-17.9,12.6-43.7,12.2-51.3
				l7.7,8.4h-0.1h0.1l2.1,2.3c-1.5,2.2-9,13.9-16,37.5c-7.8,26.3-18.7,35.8-21,39.5s18.2-10.6,28.9-29.2c9.9-17.1,8.2-43.3,8.3-47.6
				l8.4,9.2c-5.1,9.4-11.2,29.8-13.4,43.6c-2.4,15-14.1,29.4-14.1,29.4s12.8-13.5,23.8-36.1c7.6-15.6,7-28.3,6-34.6l7.4,8.2
				c-4.6,9.7-8.1,19.9-10.4,30.4c-3.4,16.6-17,31.7-16.6,34.7s15.9-11.8,24.6-29c7.3-14.3,4.5-29.9,3.2-35.1l7.9,8.7
				c-1.7,5.5-6.3,23.7-9.7,37.2c-2.5,9.6-5.6,19-9.2,28.2c7.1-9.9,13.1-20.5,17.9-31.6c5.9-14,3.4-27.4,2-32.6l7.4,8.2
				c-0.9,3.8-5.9,25.6-7.8,38.5c-2.1,14.2-8.5,33.9-8.5,33.9c5.9-9.1,10.8-18.9,14.6-29.1c5.7-15.3,2.9-38,2-43l8.3,9.2
				c-3.7,6.3-4.6,23.8-4.1,37.8c0.5,14.4-5.4,32.8-5.4,32.8s5.7-7.3,10.8-25.2c4.4-15.5,0.5-38.7-0.5-44.6l8.2,9.2
				c-1,7.8,1.7,29.4,2.8,41.1c0.6,7.5-1.1,14.9-4.8,21.4c0,0,10.2-9.9,10.9-30.8c0.5-9.7-1.4-19.3-5.6-28.1l1.8,2l1.5-1.2l-7.3-8
				c3.4,2.8,14.2,9.6,30.7,10.7c20.8,1.4,31.7-7.7,31.7-7.7c-6.8,3-14.4,3.9-21.8,2.6c-12.1-2.3-34.8-7.5-41.7-6.8l0,0l-5.7-6.2
				c5.4,1.6,28.4,8,44.5,5.1c18.3-3.3,26.2-8.2,26.2-8.2s-18.9,4-33.2,2.1c-13.9-1.9-31.5-2.7-38.1,0.3l-8.5-9.3
				c4.2,1.2,27.1,6.6,43.2,2.4c10.5-2.7,20.8-6.6,30.5-11.5c0,0-20.3,4.4-34.6,5c-13.3,0.6-36,3.4-39.3,3.9l-7.7-8.4
				c4.7,1.8,18.1,6,33.1,1.4c11.6-3.7,22.8-8.6,33.3-14.6c-9.5,2.7-19.2,4.9-29,6.4c-13.9,2-32.8,4.9-38.2,5.9l-8.4-9.2
				c4.5,1.7,20.3,6.5,35.7,0.5c18-7,34.3-20.9,31.3-21.6s-19.3,11.4-36.2,13c-10.8,1.2-21.4,3.7-31.6,7.3l-8.1-8.8
				c5.3,1.8,18.7,4.7,36.7-1.9c23.6-8.7,38.3-20,38.3-20S708.5,38,693.4,38.9c-14.5,0.8-36.3,5.1-45.7,9.3l-9-9.8
				c7,0.8,30.2,3.8,46.7-3.6C705,26,721.3,7,717.4,8.9s-14.5,11.9-41.4,17c-21.9,4.1-34.2,9.7-38,11.7l-9.5-10.4
				c3.1,0.9,33,4.3,54.2-6.6l22.8-11.7c0,0-23.2,11.1-40,12s-28.3,1.7-37.2,6.1l-10-10.9c6.5,2.6,22,7.4,43,0
				c15.4-5.4,24.6-11.6,29.7-16h-3.8c-7.6,3.4-15.6,5.9-23.8,7.4c-20.6,4.1-40.6,6.4-46.6,7l-8.5-9.2l-0.1-0.3
				c5.6,1.6,31.4,8.2,55.1-0.1L676.6,0h-27c-14.1,0.8-28.1,2.2-42,4.4L603.5,0h-2l6.2,6.6C606,13,600.9,33.3,598.8,50.5z M608.1,4.8
				v0.1l-0.2-0.2L608.1,4.8z"/>
			<path class="st3" d="M583.2,22.5c1,13.3-7.3,37-7.3,37s9.7-12.1,14-35.5c1.4-7.9,1.4-16.1,0-24h-7.2
				C582.7,8.2,582.8,17,583.2,22.5z"/>
			<path class="st3" d="M524,0L524,0l-0.6,0.8L524,0z"/>
			<path class="st3" d="M637.4,0h-20.2C623.9,1.2,630.7,1.2,637.4,0z"/>
			<path class="st3" d="M812.5,2.4H812H812.5z"/>
			<path class="st3" d="M928.5,3.8c0,0-30.5-1.9-55-3.8h-59.8c13.5,1.2,44.4,4.1,66,5.2c0,0-61.2-2.5-67.3-2.8
				c6.6,0.5,80.6,7.9,119,7c0,0-116.3,12.8-113.2,12.9s63-1.1,104.2-7.1c0,0-35.6,6.4-61.9,11.5s-39.8,10-37.8,10.6
				s79.8-12,117.2-21c0,0-58.5,20.6-79.8,29.6s-27.6,12.3-25.1,12S908,36.2,944.6,18.7c0,0-100.3,55.6-98.6,56.3
				s68.2-36.5,68.2-36.5S851,83.9,852.1,83.4s80-46.8,107.2-67.7c0,0-29.6,25.5-53.3,49.9s-30.8,39.2-29.7,38.4s36.4-41.2,52.7-54.7
				C941.4,39,953.2,27.1,960,18.5V0h-57C913.6,1.7,922.7,3,928.5,3.8z"/>
			<path class="st3" d="M914.9,125.4c0.6-1.2,3.8-7.7,8.3-16.8l-0.3-1l0.3,0.9c8.6-17.3,21.8-44,30.1-62.7c2.6-5.9,4.8-11,6.6-15.4
				v-9.9c-6,11.3-16.4,31.9-25.1,53.3C923,103.1,915.8,123,914.9,125.4z"/>
			<path class="st3" d="M0,21.5V87c2.3,7.2,4,11.3,4,11.3C8.2,87.3,4.4,52.2,0,21.5z"/>
			<path class="st3" d="M14.9,84.8C21,70.3,24.5,30.3,25.8,0H15.2C10.8,41.3,14.9,84.8,14.9,84.8z"/>
			<path class="st3" d="M28.1,77c4-10.3,14.5-42.9,23.8-77H41.3C27.6,45.7,28.1,77,28.1,77z"/>
			<path class="st3" d="M51.3,41.3c5-12.3,10.2-26.8,15-41.3H56c-7.7,22.7-13.6,45.9-17.7,69.5C38.3,69.5,41.7,64.8,51.3,41.3z"/>
			<path class="st3" d="M81,0h-9.3C62,20.6,53.6,41.8,46.5,63.4C56.2,50.1,69.6,24,81,0z"/>
			<path class="st3" d="M115.2,0h-6.7c-10.1,14.5-19,29.8-26.7,45.7C92.5,34.3,101.5,20.8,115.2,0z"/>
			<path class="st3" d="M133.5,0h-10.3c-20.9,22.6-31.4,41.6-31.4,41.6C100,36.3,117.2,18.2,133.5,0z"/>
			<path class="st3" d="M104.7,36.5c7.4-6.5,27.4-22.1,46.5-36.5h-10.7C127.4,11,115.5,23.3,104.7,36.5z"/>
			<path class="st3" d="M112.9,34.1c8.4-5.9,31.1-21.4,48.8-34.1h-7.5C133,13.6,112.9,34.1,112.9,34.1z"/>
			<path class="st3" d="M171.4,4.2c2-1.5,4.1-2.9,6.4-4.2h-6.4c-22.7,11.3-48.3,32.6-48.3,32.6C128.9,31.4,152,19.2,171.4,4.2z"/>
			<path class="st3" d="M138.7,29c3.5-0.4,9.1-2.4,15.4-5.1c9.7-4.3,19-9.4,27.8-15.3c6.9-4.9,21.2-7.4,31.4-8.6H203
				c-4.7,0.7-9.3,1.8-13.9,3.1C167.3,9.6,138.7,29,138.7,29z"/>
			<path class="st3" d="M196.2,11.1c-14.4,2.8-28.2,8.3-40.5,16.2c20.1-10.5,72.8-18.7,72.8-18.7S220.1,6.6,196.2,11.1z"/>
			<path class="st3" d="M228.6,21.2c0,0-16.7-4.1-32.7-2.9s-34.7,9-34.7,9c17.4,7.2,61.9,16.3,61.9,16.3c-8.2-14.6-47-18-47-18
				C200.6,26.3,228.6,21.2,228.6,21.2z"/>
			<path class="st3" d="M49.2,133.5c23.1,15,55.5,51,55.5,51c-13.7-19.6-29-38.2-45.6-55.5c-22-22.8-39.5-28.8-45.5-30.3
				c3.3-3.6,6.7-7.1,10.1-10.3c3.4,3.6,17.3,18.4,31.5,30.7c16.2,14.2,51.2,51.5,51.2,51.5c-13.2-19.1-28-37.1-44.2-53.8
				C41,95.4,28.1,89.4,24.2,88c3.5-3.3,7.1-6.5,10.7-9.3c10.8,12.9,22.9,24.6,36.1,35.1c21.8,17,41.9,39.5,41.9,39.5
				C87,104.9,45.6,82.8,35.7,78c3.1-2.5,6.3-4.9,9.5-7.1C56.7,78.5,67.5,87,77.6,96.4c17.5,16.3,50.9,47.3,50.9,47.3
				c-26.9-48.6-71.7-68.8-82.8-73.2c3.3-2.3,6.7-4.5,10-6.6c1.5,1.7,8,8.1,28.3,20.9c24.2,15.3,60.6,46.1,60.6,46.1
				c-39.8-53.1-81.9-65.6-88.4-67.3c12.5-7.7,25.8-14.2,39.5-19.4c29,13.2,75.8,56.3,75.8,56.3C154.2,58.8,105.5,46.1,96.1,44
				c4.4-1.7,8.7-3.2,12.9-4.5c17.2,3.2,70.9,35.1,70.9,35.1c-31-30.1-61-34.6-70.4-35.3c9.2-2.9,18.5-5.3,28-7.2
				c18.1,5.3,59.1,31.2,59.1,31.2c-14.8-19.8-47.2-28.6-59.1-31.2c6.4-1.2,11.6-2,15.5-2.5c-5.7,0.6-11.2,1.3-16.6,2.2
				c-1.1-0.3-2.3-0.5-3.5-0.6c0,0,1.2,0.2,3.4,0.7c-24.9,4-46.3,10.6-64.8,19c9-10.1,22.2-30.7,34.2-50.9h-6.1
				C85.3,23.4,72.7,47.7,71.2,51.1C68,52.5,65,54,62,55.5c9.1-10,22.3-34.3,33.7-55.5H85.5C72,24.1,62.1,50.2,59.7,56.7
				c-23,12-43.2,28.6-59.7,48.6v10.3c3.9-5.5,8.1-10.8,12.6-15.8C23,112.9,35.3,124.3,49.2,133.5z"/>
		</g>
	</g>
</g>
<rect class="st4" width="960" height="231.1"/>
</svg>
